<svg width="97" height="119" viewBox="0 0 97 119" fill="none" xmlns="http://www.w3.org/2000/svg">
<path fill-rule="evenodd" clip-rule="evenodd" d="M47.9608 0.0634766H48.9083C74.9433 0.0634766 96.0488 18.9374 96.0488 42.2196V43.9143C96.0488 67.1964 74.9433 86.0704 48.9083 86.0704H47.9608C21.9258 86.0704 0.820313 67.1964 0.820312 43.9143V42.2196C0.820312 18.9374 21.9258 0.0634766 47.9608 0.0634766Z" fill="#76D867"/>
<path fill-rule="evenodd" clip-rule="evenodd" d="M80.0478 10.5698L30.5454 47.7154L27.6523 44.6321L76.4587 8.00879C77.7019 8.81083 78.8997 9.66572 80.0478 10.5698Z" fill="#C6A25C"/>
<path fill-rule="evenodd" clip-rule="evenodd" d="M16.6914 49.2351L48.4163 29.5088L79.7033 49.2351V111.067H16.6914V49.2351Z" fill="#C6A25C"/>
<path d="M26.4041 67.0048C26.8438 67.0048 39.4188 68.4148 45.355 72.9363" stroke="#C6A25C" stroke-width="7.56"/>
<path fill-rule="evenodd" clip-rule="evenodd" d="M26.5225 73.3604H69.6359C83.8309 73.3604 95.3381 83.6509 95.3381 96.3449C95.3381 109.039 83.8309 119.33 69.6359 119.33H26.5225C12.3276 119.33 0.820313 109.039 0.820312 96.3449C0.820312 83.6509 12.3276 73.3604 26.5225 73.3604Z" fill="#3D3D3D"/>
<path d="M28.2213 77.1971C26.1033 78.3605 24.7085 80.1851 24.1682 82.1962C23.6287 84.2042 23.9416 86.3971 25.2335 88.2991C29.1982 94.1366 35.8244 97.228 43.8156 97.6046C46.3004 97.7217 48.6032 96.923 50.3171 95.5352C52.0252 94.152 53.148 92.1833 53.2779 89.9557C53.4069 87.7415 52.5315 85.6896 50.9941 84.154C49.4735 82.6352 47.3019 81.6183 44.7596 81.4622C42.8146 81.3705 41.3929 80.9777 40.5991 79.8728C39.3029 77.9712 37.2724 76.7215 35.0375 76.2358C32.7951 75.7486 30.3458 76.0301 28.2213 77.1971Z" fill="white" stroke="#3D3D3D" stroke-width="8.28"/>
<path d="M48.197 78.8675C52.2527 78.8675 55.5405 75.9273 55.5405 72.3004C55.5405 68.6736 52.2527 65.7334 48.197 65.7334C44.1413 65.7334 40.8535 68.6736 40.8535 72.3004C40.8535 75.9273 44.1413 78.8675 48.197 78.8675Z" fill="#C6A25C"/>
<path fill-rule="evenodd" clip-rule="evenodd" d="M34.4934 44.5498C40.662 44.5498 45.6626 49.0217 45.6626 54.538V60.6136C45.6626 66.1299 40.662 70.6018 34.4934 70.6018C28.3248 70.6018 23.3242 66.1299 23.3242 60.6136V54.538C23.3242 49.0217 28.3248 44.5498 34.4934 44.5498Z" fill="white"/>
<path fill-rule="evenodd" clip-rule="evenodd" d="M37.5769 50.4814C40.3462 50.4814 42.5913 52.4891 42.5913 54.9656V60.5978C42.5913 63.0744 40.3462 65.082 37.5769 65.082C34.8075 65.082 32.5625 63.0744 32.5625 60.5978V54.9656C32.5625 52.4891 34.8075 50.4814 37.5769 50.4814Z" fill="#3D3D3D"/>
<path fill-rule="evenodd" clip-rule="evenodd" d="M61.9714 44.5498C55.8029 44.5498 50.8022 49.0217 50.8022 54.538V60.6136C50.8022 66.1299 55.8029 70.6018 61.9714 70.6018C68.14 70.6018 73.1406 66.1299 73.1406 60.6136V54.538C73.1406 49.0217 68.14 44.5498 61.9714 44.5498Z" fill="white"/>
<path d="M59.5989 50.4814C56.8295 50.4814 54.5845 52.4891 54.5845 54.9656V60.5978C54.5845 63.0744 56.8295 65.082 59.5989 65.082C62.3683 65.082 64.6133 63.0744 64.6133 60.5978V54.9656C64.6133 52.4891 62.3683 50.4814 59.5989 50.4814Z" fill="#3D3D3D"/>
<path fill-rule="evenodd" clip-rule="evenodd" d="M54.5141 48.1514C56.7382 48.1514 58.5412 49.7637 58.5412 51.7526C58.5412 53.7416 56.7382 55.3539 54.5141 55.3539C53.6873 55.3539 52.9187 55.1311 52.2793 54.749C51.5589 54.3184 52.3038 52.1192 54.5141 48.1514Z" fill="white"/>
<path fill-rule="evenodd" clip-rule="evenodd" d="M33.0368 54.93C30.8128 54.93 29.0098 53.3176 29.0098 51.3287C29.0098 49.3398 30.8128 47.7274 33.0368 47.7274C35.2609 47.7274 37.0639 49.3398 37.0639 51.3287C37.0639 53.3176 35.2609 54.93 33.0368 54.93Z" fill="white"/>
</svg>
