<svg width="140" height="124" viewBox="0 0 140 124" fill="none" xmlns="http://www.w3.org/2000/svg">
<path fill-rule="evenodd" clip-rule="evenodd" d="M88.6312 6.50444L130.923 44.5501C141.168 53.7663 141.185 68.7239 130.961 77.9589C130.948 77.9703 130.936 77.9817 130.923 77.9931L88.6312 116.039C78.4011 125.242 61.8371 125.242 51.6071 116.039L9.31509 77.9931C-0.929726 68.7769 -0.946669 53.8192 9.27724 44.5842C9.28985 44.5728 9.30247 44.5614 9.31509 44.5501L51.6071 6.50445C61.8371 -2.69842 78.4011 -2.69842 88.6312 6.50444Z" fill="#76D867"/>
<path fill-rule="evenodd" clip-rule="evenodd" d="M126.143 34.3932L126.143 88.1497C126.143 101.197 114.409 111.773 99.9358 111.773L40.0723 111.773C25.5987 111.773 13.8655 101.197 13.8655 88.1497L13.8655 34.3932C13.8655 21.3462 25.5987 10.7695 40.0723 10.7695L99.9358 10.7695C114.409 10.7695 126.143 21.3462 126.143 34.3932Z" fill="#76D867"/>
<path fill-rule="evenodd" clip-rule="evenodd" d="M52.4372 37.4424H87.8089C98.383 37.4424 106.955 45.1695 106.955 54.7014V86.7775C106.955 96.3094 98.383 104.036 87.8089 104.036H52.4372C41.863 104.036 33.291 96.3094 33.291 86.7775V54.7014C33.291 45.1695 41.863 37.4424 52.4372 37.4424Z" fill="#EFB697"/>
<path fill-rule="evenodd" clip-rule="evenodd" d="M69.8591 81.4073C72.0994 81.4073 73.9155 79.8037 73.9155 77.8256C73.9155 75.8474 69.8591 71.1689 69.8591 71.1689C69.8591 71.1689 65.8027 75.8474 65.8027 77.8256C65.8027 79.8037 67.6188 81.4073 69.8591 81.4073Z" fill="#80411F"/>
<path d="M110.199 74.4372C113.604 74.4372 116.365 71.9489 116.365 68.8793C116.365 65.8097 113.604 63.3213 110.199 63.3213C106.794 63.3213 104.033 65.8097 104.033 68.8793C104.033 71.9489 106.794 74.4372 110.199 74.4372Z" fill="#EFB697"/>
<path d="M29.7204 75.3152C33.1256 75.3152 35.8861 72.8268 35.8861 69.7572C35.8861 66.6876 33.1256 64.1992 29.7204 64.1992C26.3152 64.1992 23.5547 66.6876 23.5547 69.7572C23.5547 72.8268 26.3152 75.3152 29.7204 75.3152Z" fill="#EFB697"/>
<path d="M76.6301 86.0254C77.0659 85.6626 77.1102 85.0322 76.729 84.6174C76.3479 84.2027 75.6856 84.1605 75.2498 84.5233C73.8204 85.7134 72.0192 86.3753 70.1134 86.3753C68.18 86.3753 66.3545 85.694 64.9162 84.4721C64.4842 84.1052 63.8216 84.141 63.4361 84.5522C63.0506 84.9633 63.0882 85.5941 63.5202 85.961C65.3375 87.5049 67.6579 88.3709 70.1134 88.3709C72.5338 88.3709 74.8235 87.5296 76.6301 86.0254Z" fill="#914D28"/>
<path fill-rule="evenodd" clip-rule="evenodd" d="M109.046 35.2283L95.1986 31.0674C93.1028 30.4377 91.9702 28.3957 92.6688 26.5065C92.8652 25.9754 93.196 25.4929 93.6351 25.0971L102.867 16.7752C104.429 15.3671 106.962 15.3671 108.524 16.7752C108.963 17.171 109.294 17.6536 109.49 18.1846L114.106 30.6674C114.805 32.5566 113.672 34.5986 111.576 35.2283C110.755 35.4751 109.867 35.4751 109.046 35.2283Z" fill="#FFB100"/>
<path fill-rule="evenodd" clip-rule="evenodd" d="M108.703 34.8032C108.447 34.0785 108.461 33.2908 108.743 32.5584C109.463 30.6889 111.711 29.6519 113.763 30.2423L127.322 34.1432C127.899 34.3091 128.421 34.5951 128.846 34.9786C130.359 36.3427 130.32 38.5901 128.758 39.9982L119.526 48.32C119.087 48.7159 118.555 49.017 117.972 49.1995C115.898 49.8489 113.686 48.8758 113.031 47.0259L108.703 34.8032Z" fill="#FFB100"/>
<path fill-rule="evenodd" clip-rule="evenodd" d="M55.9316 103.793H84.3581V121.825C84.3581 123.004 83.2975 123.96 81.9892 123.96H58.3005C56.9922 123.96 55.9316 123.004 55.9316 121.825V103.793Z" fill="#3D3D3D"/>
<path fill-rule="evenodd" clip-rule="evenodd" d="M81.3321 103.793V104.801C81.3321 107.848 78.5923 110.318 75.2125 110.318C73.1866 110.318 71.3906 109.43 70.2768 108.063C69.1641 109.43 67.3682 110.318 65.3422 110.318C61.9625 110.318 59.2227 107.848 59.2227 104.801V103.793H81.3321Z" fill="white"/>
<path d="M70.2776 120.401C72.022 120.401 73.4361 119.073 73.4361 117.436C73.4361 115.798 72.022 114.47 70.2776 114.47C68.5332 114.47 67.1191 115.798 67.1191 117.436C67.1191 119.073 68.5332 120.401 70.2776 120.401Z" fill="white"/>
<path d="M99.1542 63.7539C99.1542 56.7107 92.8202 51.001 85.0068 51.001C77.1934 51.001 70.8594 56.7107 70.8594 63.7539C70.8594 70.7972 77.1934 76.5069 85.0068 76.5069C92.8202 76.5069 99.1542 70.7972 99.1542 63.7539Z" fill="white"/>
<path d="M68.6405 63.7539C68.6405 56.7107 62.3065 51.001 54.4931 51.001C46.6797 51.001 40.3457 56.7107 40.3457 63.7539C40.3457 70.7972 46.6797 76.5069 54.4931 76.5069C62.3065 76.5069 68.6405 70.7972 68.6405 63.7539Z" fill="white"/>
<path fill-rule="evenodd" clip-rule="evenodd" d="M81.3311 56.3398C85.1826 56.3398 88.3048 59.1543 88.3048 62.6262V66.0688C88.3048 69.5407 85.1826 72.3552 81.3311 72.3552C77.4797 72.3552 74.3574 69.5407 74.3574 66.0688V62.6262C74.3574 62.2828 74.388 61.9459 74.4467 61.6175C74.6821 61.6578 74.9251 61.6783 75.1733 61.6783C77.3717 61.6783 79.1538 60.0719 79.1538 58.0903C79.1538 57.6144 79.051 57.1602 78.8644 56.7447C79.631 56.483 80.4625 56.3398 81.3311 56.3398Z" fill="#3D3D3D"/>
<path fill-rule="evenodd" clip-rule="evenodd" d="M58.2999 55.7471C62.1514 55.7471 65.2736 58.5616 65.2736 62.0334V66.0692C65.2736 69.5411 62.1514 72.3556 58.2999 72.3556C54.4484 72.3556 51.3262 69.5411 51.3262 66.0692V62.0334C51.3262 61.8895 51.3315 61.7468 51.3421 61.6053C51.6006 61.6537 51.8681 61.6787 52.1421 61.6787C54.3404 61.6787 56.1225 60.0723 56.1225 58.0907C56.1225 57.4184 55.9174 56.7892 55.5604 56.2514C56.401 55.9266 57.3272 55.7471 58.2999 55.7471Z" fill="#3D3D3D"/>
<path fill-rule="evenodd" clip-rule="evenodd" d="M103.644 76.4774L88.8008 89.8571L73.958 76.4774C82.1555 69.088 95.4461 69.088 103.644 76.4774Z" fill="#EFB697"/>
<path fill-rule="evenodd" clip-rule="evenodd" d="M35.792 76.4774L50.6348 89.8571L65.4775 76.4774C57.2801 69.088 43.9894 69.088 35.792 76.4774Z" fill="#EFB697"/>
<path fill-rule="evenodd" clip-rule="evenodd" d="M41.1266 21.9365C50.6253 21.9365 58.3255 28.8777 58.3255 37.4402V44.9883C58.3255 53.5507 50.6253 60.4919 41.1266 60.4919C31.6279 60.4919 23.9277 53.5507 23.9277 44.9883V37.4402C23.9277 28.8777 31.6279 21.9365 41.1266 21.9365Z" fill="#76D867"/>
</svg>
