<svg width="40" height="40" viewBox="0 0 40 40" fill="none" xmlns="http://www.w3.org/2000/svg">
<path d="M30.4618 6.68494H9.53784V31.4131H30.4618V6.68494Z" fill="#72C508"/>
<path fill-rule="evenodd" clip-rule="evenodd" d="M2.88037 5.25817C2.88037 4.47027 3.5191 3.83154 4.30701 3.83154H8.11135C8.89926 3.83154 9.53798 4.47027 9.53798 5.25817V17.1468H30.4618V5.25817C30.4618 4.47027 31.1006 3.83154 31.8885 3.83154H35.6928C36.4807 3.83154 37.1195 4.47027 37.1195 5.25817V34.7419C37.1195 35.5298 36.4807 36.1685 35.6928 36.1685H4.30701C3.5191 36.1685 2.88037 35.5298 2.88037 34.7419V5.25817ZM9.53798 31.413H30.4618V22.8533H9.53798V31.413Z" fill="#BAF68B"/>
<path d="M37.1195 26.59L26.8227 36.1684H4.93652L10.0486 31.4129H30.4619V22.8531H19.2504L25.3849 17.1466H30.4619V12.4238L37.1195 6.23071V26.59Z" fill="#D2DF36"/>
<path d="M9.53798 17.0713L2.88037 23.2645V12.1851L9.53798 5.99194V17.0713Z" fill="#D2DF36"/>
<path d="M16.4296 13.1274H23.9061C25.086 13.1274 26.0423 14.1163 26.0423 15.3363V24.1723C26.0423 25.3922 25.086 26.3812 23.9061 26.3812H16.4296C15.2498 26.3812 14.2935 25.3922 14.2935 24.1723V15.3363C14.2935 14.1163 15.2498 13.1274 16.4296 13.1274Z" fill="#D2DF36"/>
<path d="M22.3404 17.7612C22.3404 16.2362 21.1449 15 19.6701 15C18.1954 15 17 16.2362 17 17.7612C17 18.662 17.417 19.462 18.0624 19.966L17.3856 22.4298C17.3586 22.5279 17.345 22.6295 17.345 22.7315C17.345 23.3415 17.8231 23.836 18.4131 23.836H20.926C21.0247 23.836 21.1229 23.8219 21.2179 23.794C21.7853 23.6274 22.1146 23.0165 21.9535 22.4298L21.2769 19.9668C21.9229 19.4629 22.3404 18.6625 22.3404 17.7612Z" fill="#72C508"/>
</svg>
