<svg width="40" height="40" viewBox="0 0 40 40" fill="none" xmlns="http://www.w3.org/2000/svg">
<path d="M30.4618 6.68491H9.53784V31.4131H30.4618V6.68491Z" fill="#00B351"/>
<path fill-rule="evenodd" clip-rule="evenodd" d="M2.88037 5.25814C2.88037 4.47024 3.5191 3.83151 4.30701 3.83151H8.11135C8.89926 3.83151 9.53798 4.47024 9.53798 5.25814V17.1467H30.4618V5.25814C30.4618 4.47024 31.1006 3.83151 31.8885 3.83151H35.6928C36.4807 3.83151 37.1195 4.47024 37.1195 5.25814V34.7419C37.1195 35.5297 36.4807 36.1685 35.6928 36.1685H4.30701C3.5191 36.1685 2.88037 35.5297 2.88037 34.7419V5.25814ZM9.53798 31.413H30.4618V22.8532H9.53798V31.413Z" fill="#BAF68B"/>
<path d="M37.1195 26.59L26.8227 36.1684H4.93652L10.0486 31.4129H30.4619V22.8531H19.2504L25.3849 17.1466H30.4619V12.4238L37.1195 6.23071V26.59Z" fill="#F5DF6B"/>
<path d="M9.53798 17.0714L2.88037 23.2645V12.1851L9.53798 5.99197V17.0714Z" fill="#F5DF6B"/>
<path d="M16.3636 13H24.6363C25.9418 13 27 13.9699 27 15.1666V23.8334C27 25.0299 25.9418 26 24.6363 26H16.3636C15.0582 26 14 25.0299 14 23.8334V15.1666C14 13.9699 15.0582 13 16.3636 13Z" fill="#C1F48F"/>
<path d="M23.3404 17.7612C23.3404 16.2362 22.1449 15 20.6701 15C19.1954 15 18 16.2362 18 17.7612C18 18.662 18.417 19.462 19.0624 19.966L18.3856 22.4298C18.3586 22.5279 18.345 22.6295 18.345 22.7315C18.345 23.3415 18.8231 23.836 19.4131 23.836H21.926C22.0247 23.836 22.1229 23.8219 22.2179 23.794C22.7853 23.6274 23.1146 23.0165 22.9535 22.4298L22.2769 19.9668C22.9229 19.4629 23.3404 18.6625 23.3404 17.7612Z" fill="#00B351"/>
</svg>
