<svg width="19" height="24" viewBox="0 0 19 24" fill="none" xmlns="http://www.w3.org/2000/svg">
<g clip-path="url(#clip0_120_1435)">
<path d="M2.48974 5.61042C1.49999 6.20773 0.89502 7.27945 0.89502 8.43545V15.7055C0.89502 16.8615 1.49999 17.9332 2.48974 18.5305L7.35933 21.4693C8.40783 22.1021 9.72055 22.1021 10.7691 21.4694L15.639 18.5305C16.6287 17.9332 17.2337 16.8615 17.2337 15.7054V8.43552C17.2337 7.27946 16.6287 6.20772 15.639 5.61042L10.7691 2.67158C9.72055 2.03882 8.40783 2.03884 7.35933 2.67162L2.48974 5.61042Z" fill="#1CB0F6" stroke="#00B351" stroke-width="2"/>
<path fill-rule="evenodd" clip-rule="evenodd" d="M7.848 4.85336C8.38921 4.52092 9.08543 4.91033 9.08543 5.54548V7.92598C9.08543 8.21025 8.93682 8.47387 8.69359 8.62098L6.47695 9.9619C6.20162 10.1284 5.85391 10.1168 5.59038 9.93204L3.79584 8.67453C3.31718 8.33909 3.33881 7.62312 3.83685 7.31721L7.848 4.85336Z" fill="#DDF4FF"/>
</g>
<defs>
<clipPath id="clip0_120_1435">
<rect width="18.0504" height="22.563" fill="white" transform="translate(0.142822 0.752075)"/>
</clipPath>
</defs>
</svg>
