<svg width="19" height="23" viewBox="0 0 19 23" fill="none" xmlns="http://www.w3.org/2000/svg">
<g clip-path="url(#clip0_120_1439)">
<path d="M11.2278 12.9475C11.2508 12.9788 11.2761 13.0082 11.3036 13.0356C11.7609 13.4901 12.0357 14.1015 12.0357 14.771C12.0357 16.1303 10.8831 17.2801 9.40121 17.2801C7.91931 17.2801 6.76676 16.1303 6.76676 14.771C6.76676 14.1772 6.98259 13.6304 7.34933 13.1974C7.38874 13.1509 7.42228 13.0998 7.44925 13.0453L9.37443 10.4238L11.2278 12.9475ZM11.0942 1.72281C10.2291 0.632103 8.57333 0.63211 7.70823 1.72283L5.26299 4.80559L3.98927 4.12379C3.98926 4.12379 3.98926 4.12379 3.98926 4.12379C3.84263 4.0453 3.65419 3.97855 3.50958 3.9329C3.35905 3.88538 3.18594 3.83892 3.04999 3.81601C2.36742 3.70098 1.75354 3.91908 1.33569 4.3994C0.944981 4.84852 0.785946 5.45393 0.787599 6.04754L0.805279 12.4092C0.771474 12.7094 0.75415 13.0141 0.75415 13.3225C0.75415 17.963 4.6525 21.6771 9.40121 21.6771C14.1499 21.6771 18.0483 17.963 18.0483 13.3225C18.0483 11.3661 17.3516 9.56778 16.1899 8.14712L11.0942 1.72283C11.0942 1.72282 11.0942 1.72282 11.0942 1.72281Z" fill="#84DE4D" stroke="#00B351" stroke-width="1.5" stroke-linejoin="round"/>
</g>
<defs>
<clipPath id="clip0_120_1439">
<rect width="18.8025" height="22.563" fill="white"/>
</clipPath>
</defs>
</svg>
