<svg width="40" height="40" viewBox="0 0 40 40" fill="none" xmlns="http://www.w3.org/2000/svg">
<path d="M30.7315 31.5823C30.3604 33.5304 28.6571 34.9399 26.674 34.9399H13.3001C11.3169 34.9399 9.61367 33.5304 9.2426 31.5823L6.2262 15.7461L19.8751 5.65283L33.7485 15.7426L30.7315 31.5823Z" fill="white"/>
<path fill-rule="evenodd" clip-rule="evenodd" d="M16.4447 28.8889C16.4447 28.1525 17.0416 27.5555 17.778 27.5555H23.1113C23.8477 27.5555 24.4447 28.1525 24.4447 28.8889C24.4447 29.6252 23.8477 30.2222 23.1113 30.2222H17.778C17.0416 30.2222 16.4447 29.6252 16.4447 28.8889Z" fill="white"/>
<path d="M24.6956 20.3479C24.6956 22.7491 22.749 24.6956 20.3477 24.6956C17.9465 24.6956 16 22.7491 16 20.3479C16 17.9466 17.9465 16 20.3477 16C22.749 16 24.6956 17.9466 24.6956 20.3479Z" fill="white"/>
<path d="M20.4327 3.00021C21.0259 2.99732 21.6262 3.17679 22.1422 3.55141L37.6539 14.7343C38.9447 15.6722 39.2308 17.4788 38.293 18.7696C37.3554 20.0599 35.5495 20.3463 34.2588 19.4093L20.4223 9.43424L6.58714 19.4084L6.58606 19.4093C5.29536 20.3461 3.48948 20.0598 2.55193 18.7693C1.61413 17.4786 1.90027 15.6719 3.19104 14.7342L3.19303 14.7327L18.7019 3.55188C19.2239 3.17294 19.8329 2.99304 20.4327 3.00021Z" fill="white"/>
</svg>
