<svg width="40" height="40" viewBox="0 0 40 40" fill="none" xmlns="http://www.w3.org/2000/svg">
<g clip-path="url(#clip0_151_398)">
<path d="M9.658 13.2372H1V26.5081H9.658V13.2372Z" fill="white"/>
<path d="M1 26.5081H9.658V35.2311H3.775C2.24241 35.2311 1 33.9794 1 32.4353V26.5081Z" fill="white"/>
<path d="M9.65796 26.5081H30.489V32.4353C30.489 33.9794 29.2465 35.2311 27.714 35.2311H9.65796V26.5081Z" fill="white"/>
<path d="M21.6528 19.8727H30.1998V27.1791H21.6528V19.8727Z" fill="white"/>
<path d="M21.6528 4.51416H27.4248C28.9574 4.51416 30.1998 5.7659 30.1998 7.31V19.8727H21.6528V4.51416Z" fill="white"/>
<path d="M21.942 4.51416H9.65796V13.2372H21.942V4.51416Z" fill="white"/>
<path d="M9.658 4.51416V13.2372H1L9.658 4.51416Z" fill="white"/>
<path d="M22.7636 20.7936C22.1882 20.3165 22.1882 19.4287 22.7636 18.9516L35.756 8.17757C36.5284 7.537 37.6924 8.09062 37.6924 9.0986V30.6466C37.6924 31.6546 36.5285 32.2082 35.756 31.5677L22.7636 20.7936Z" fill="white"/>
<path d="M21.668 19.8726L30.1953 12.8121V26.9331L21.668 19.8726Z" fill="white"/>
</g>
<defs>
<clipPath id="clip0_151_398">
<rect width="37" height="30.717" fill="white" transform="translate(1 4.51416)"/>
</clipPath>
</defs>
</svg>
