<svg width="40" height="40" viewBox="0 0 40 40" fill="none" xmlns="http://www.w3.org/2000/svg">
<path fill-rule="evenodd" clip-rule="evenodd" d="M20.1588 4.34952C12.4749 4.34952 6.24578 10.5786 6.24578 18.2626V19.0761C3.66887 20.3567 1.89795 23.0158 1.89795 26.0887C1.89795 30.4109 5.40181 33.9148 9.72402 33.9148H30.5936C34.9158 33.9148 38.4197 30.4109 38.4197 26.0887C38.4197 23.0158 36.6488 20.3567 34.0718 19.0761V18.2626C34.0718 10.5786 27.8428 4.34952 20.1588 4.34952Z" fill="#00B351"/>
<path d="M9.72412 18.2626C9.72412 12.4996 14.3959 7.82779 20.1589 7.82779C25.9219 7.82779 30.5937 12.4996 30.5937 18.2626V25.2191C30.5937 30.9821 25.9219 35.6539 20.1589 35.6539C14.3959 35.6539 9.72412 30.9821 9.72412 25.2191V18.2626Z" fill="#FFD6B1"/>
<path d="M6.24585 21.3061C6.24585 19.1449 7.99778 17.393 10.1589 17.393H30.1589C32.32 17.393 34.0719 19.1449 34.0719 21.3061C34.0719 23.4671 32.32 25.2191 30.1589 25.2191H10.1589C7.99778 25.2191 6.24585 23.4671 6.24585 21.3061Z" fill="#FFD6B1"/>
<path d="M15.811 17.8278C15.811 17.1074 16.395 16.5235 17.1154 16.5235C17.8357 16.5235 18.4197 17.1074 18.4197 17.8278V21.3061C18.4197 22.0264 17.8357 22.6104 17.1154 22.6104C16.395 22.6104 15.811 22.0264 15.811 21.3061V17.8278Z" fill="#00B351"/>
<path d="M21 17.8243C21 17.1039 21.584 16.52 22.3043 16.52C23.0247 16.52 23.6087 17.1039 23.6087 17.8243V21.3026C23.6087 22.0229 23.0247 22.6069 22.3043 22.6069C21.584 22.6069 21 22.0229 21 21.3026V17.8243Z" fill="#00B351"/>
<path d="M15.2 25.6905C15.2 25.1898 15.6059 24.784 16.1066 24.784H23.8586C24.3593 24.784 24.7652 25.1898 24.7652 25.6905V26.0883C24.7652 28.7296 22.624 30.871 19.9826 30.871C17.3413 30.871 15.2 28.7296 15.2 26.0883V25.6905Z" fill="white"/>
<path d="M6 17.9167V17.9131C6 10.2291 12.2291 4 19.913 4C22.3802 4 24.6975 4.64221 26.7067 5.76857C25.6087 13.1287 19.0922 18.7827 11.2174 18.7827C9.38798 18.7827 7.63189 18.4775 6 17.9167Z" fill="#00B351"/>
</svg>
